<svg id="Layer_1" height="512" viewBox="0 0 128 128" width="512" xmlns="http://www.w3.org/2000/svg" data-name="Layer 1"><path d="m31.25 12.917a1.75 1.75 0 0 0 -1.75 1.75v4.525a1.75 1.75 0 0 0 3.5 0v-4.525a1.75 1.75 0 0 0 -1.75-1.75z" fill="#444"/><path d="m96.75 12.917a1.75 1.75 0 0 0 -1.75 1.75v4.525a1.75 1.75 0 0 0 3.5 0v-4.525a1.75 1.75 0 0 0 -1.75-1.75z" fill="#444"/><path d="m64 10a6.806 6.806 0 0 1 6.806 6.806v101.194a0 0 0 0 1 0 0h-13.612a0 0 0 0 1 0 0v-101.194a6.806 6.806 0 0 1 6.806-6.806z" fill="#5a5a5a"/><path d="m10 19.192h108v67.208h-108z" fill="#6e6e6e"/><path d="m70.806 118v-101.194a6.806 6.806 0 0 0 -6.806-6.806v108z" fill="#444"/><path d="m64 19.192h54v67.208h-54z" fill="#5a5a5a"/><path d="m18.067 27.374h91.865v50.844h-91.865z" fill="#deecf1"/><path d="m64 27.374h45.933v50.844h-45.933z" fill="#c7e2e7"/><path d="m30.576 34.9h18.333v24h-18.333z" fill="#e43c53"/><path d="m79.091 34.9h18.333v24h-18.333z" fill="#fd9e27"/><path d="m55.246 42.713h2.775l1.933 6.187 1.909-6.182h2.694l-3.19 8.582h-2.877z" fill="#444"/><path d="m64.961 48.461 2.525-.158a1.927 1.927 0 0 0 .334.938 1.4 1.4 0 0 0 1.172.521 1.3 1.3 0 0 0 .876-.267.8.8 0 0 0 .308-.618.788.788 0 0 0 -.293-.6 3.393 3.393 0 0 0 -1.359-.5 5.778 5.778 0 0 1 -2.49-1.043 2.1 2.1 0 0 1 -.75-1.658 2.252 2.252 0 0 1 .384-1.251 2.546 2.546 0 0 1 1.154-.926 5.389 5.389 0 0 1 2.112-.337 4.32 4.32 0 0 1 2.511.612 2.644 2.644 0 0 1 1.028 1.948l-2.5.146a1.169 1.169 0 0 0 -1.3-1.107 1.064 1.064 0 0 0 -.7.2.6.6 0 0 0 -.234.478.478.478 0 0 0 .193.369 2.175 2.175 0 0 0 .891.316 11.142 11.142 0 0 1 2.493.759 2.621 2.621 0 0 1 1.1.952 2.414 2.414 0 0 1 .343 1.271 2.723 2.723 0 0 1 -.457 1.523 2.86 2.86 0 0 1 -1.277 1.058 5.161 5.161 0 0 1 -2.068.36 4.26 4.26 0 0 1 -3.035-.844 3.328 3.328 0 0 1 -.961-2.142z" fill="#444"/><path d="m30.576 66.9h38.281a1.75 1.75 0 0 0 0-3.5h-38.281a1.75 1.75 0 0 0 0 3.5z" fill="#fff"/><path d="m88.257 69.65h-57.681a1.75 1.75 0 1 0 0 3.5h57.681a1.75 1.75 0 0 0 0-3.5z" fill="#fff"/><path d="m21.167 10h20.167v4.667h-20.167z" fill="#deecf1"/><path d="m86.667 10h20.167v4.667h-20.167z" fill="#c7e2e7"/></svg>