<svg width="126" height="126" viewBox="0 0 126 126" fill="none" xmlns="http://www.w3.org/2000/svg">
<path d="M104.344 38.3945V52.1757H90.5625L104.344 38.3945Z" fill="#656D78"/>
<path d="M118.125 52.1757H104.344V38.3945L118.125 52.1757Z" fill="#383F51"/>
<path d="M104.344 32.4882C115.211 32.4882 124.031 41.3082 124.031 52.1757C124.031 63.0432 115.211 71.8632 104.344 71.8632C102.729 71.8632 101.154 71.6664 99.6581 71.2923C91.0547 69.2054 84.6562 61.4289 84.6562 52.1757C84.6562 42.9226 91.0547 35.146 99.6581 33.0592C101.154 32.6851 102.729 32.4882 104.344 32.4882V32.4882ZM104.344 65.957L118.125 52.1757L104.344 38.3945L90.5625 52.1757L104.344 65.957Z" fill="#B74F6F" fill-opacity="0.47"/>
<path d="M104.344 52.1757H118.125L104.344 65.957L90.5625 52.1757H104.344Z" fill="#E3E9ED"/>
<path d="M99.6581 33.0592C91.0546 35.1461 84.6562 42.9227 84.6562 52.1758C84.6562 61.4289 91.0546 69.2055 99.6581 71.2924C92.7478 84.5027 78.9271 93.5196 63 93.5196C47.0728 93.5196 33.2522 84.5027 26.3418 71.3121V71.2924C34.9453 69.2055 41.3437 61.4289 41.3437 52.1758C41.3437 42.9227 34.9453 35.1461 26.3418 33.0592C33.2522 19.8489 47.0728 10.8321 63 10.8321C78.9271 10.8321 92.7478 19.8489 99.6581 33.0592Z" fill="#656D78"/>
<path d="M29.5312 52.1757C29.5312 56.5267 26.0072 60.0507 21.6562 60.0507V44.3007C26.0072 44.3007 29.5312 47.8248 29.5312 52.1757Z" fill="#CCD1D9"/>
<path d="M21.6562 44.3007V60.0507C17.3053 60.0507 13.7812 56.5267 13.7812 52.1757C13.7812 47.8248 17.3053 44.3007 21.6562 44.3007Z" fill="#E3E9ED"/>
<path d="M21.6562 60.0507C26.0072 60.0507 29.5312 56.5267 29.5312 52.1757C29.5312 47.8248 26.0072 44.3007 21.6562 44.3007C17.3053 44.3007 13.7812 47.8248 13.7812 52.1757C13.7812 56.5267 17.3053 60.0507 21.6562 60.0507ZM21.6562 32.4882C23.2706 32.4882 24.8456 32.6851 26.3419 33.0592C34.9453 35.146 41.3438 42.9226 41.3438 52.1757C41.3438 61.4289 34.9453 69.2054 26.3419 71.2923C24.8456 71.6664 23.2706 71.8632 21.6562 71.8632C10.7888 71.8632 1.96875 63.0432 1.96875 52.1757C1.96875 41.3082 10.7888 32.4882 21.6562 32.4882V32.4882Z" fill="#498C8A" fill-opacity="0.5"/>
<path d="M31.4017 44.3816C30.8977 44.3816 30.3937 44.1887 30.0098 43.8048C25.403 39.2018 17.9099 39.2018 13.305 43.8048C12.5352 44.5746 11.291 44.5746 10.5212 43.8048C9.75139 43.035 9.75139 41.7907 10.5212 41.021C16.6617 34.8804 26.6531 34.8804 32.7936 41.021C33.5634 41.7907 33.5634 43.035 32.7936 43.8048C32.4097 44.1887 31.9057 44.3816 31.4017 44.3816Z" fill="#383F51"/>
<path d="M21.6564 67.9002C17.6225 67.9002 13.5905 66.3666 10.5212 63.2953C9.75139 62.5255 9.75139 61.2813 10.5212 60.5115C11.291 59.7417 12.5352 59.7417 13.305 60.5115C17.9079 65.1144 25.4049 65.1144 30.0098 60.5115C30.7796 59.7417 32.0239 59.7417 32.7936 60.5115C33.5634 61.2813 33.5634 62.5255 32.7936 63.2953C29.7244 66.3666 25.6904 67.9002 21.6564 67.9002Z" fill="#383F51"/>
<path d="M57.0897 62.0235C56.1604 62.0235 55.3336 61.364 55.1584 60.419L52.2052 44.6572C52.0024 43.5881 52.7092 42.5605 53.7763 42.3596C54.863 42.1628 55.875 42.8636 56.0738 43.9307L59.0269 59.6925C59.2297 60.7615 58.5229 61.7892 57.4559 61.99C57.3319 62.0117 57.2098 62.0235 57.0897 62.0235V62.0235Z" fill="#E3E9ED"/>
<path d="M57.0937 62.0235C56.9736 62.0235 56.8515 62.0117 56.7275 61.9881C55.6604 61.7872 54.9556 60.7596 55.1564 59.6905L58.1095 43.9287C58.3103 42.8617 59.3302 42.1627 60.4071 42.3577C61.4741 42.5585 62.1789 43.5862 61.9781 44.6552L59.025 60.417C58.8498 61.364 58.0229 62.0235 57.0937 62.0235Z" fill="#E3E9ED"/>
<path d="M68.9041 46.2618H64.9666C63.8779 46.2618 62.9979 45.3817 62.9979 44.293C62.9979 43.2043 63.8779 42.3243 64.9666 42.3243H68.9041C69.9929 42.3243 70.8729 43.2043 70.8729 44.293C70.8729 45.3817 69.9929 46.2618 68.9041 46.2618Z" fill="#E3E9ED"/>
<path d="M68.9022 62.0235C68.0202 62.0235 67.2189 61.427 66.9945 60.5312L63.057 44.7694C62.7912 43.7161 63.433 42.6471 64.4902 42.3833C65.5435 42.1116 66.6125 42.7593 66.8763 43.8165L70.8139 59.5783C71.0796 60.6316 70.4378 61.7006 69.3806 61.9645C69.2211 62.0038 69.0597 62.0235 68.9022 62.0235V62.0235Z" fill="#E3E9ED"/>
<path d="M68.9041 62.0235H64.9666C63.8779 62.0235 62.9979 61.1435 62.9979 60.0548C62.9979 58.966 63.8779 58.086 64.9666 58.086H68.9041C69.9929 58.086 70.8729 58.966 70.8729 60.0548C70.8729 61.1435 69.9929 62.0235 68.9041 62.0235Z" fill="#E3E9ED"/>
<path d="M106.312 60.0351H102.375C101.286 60.0351 100.406 59.1551 100.406 58.0664C100.406 56.9777 101.286 56.0976 102.375 56.0976H106.312C107.401 56.0976 108.281 56.9777 108.281 58.0664C108.281 59.1551 107.401 60.0351 106.312 60.0351Z" fill="#CCD1D9"/>
</svg>
