<?xml version="1.0"?>
<svg xmlns="http://www.w3.org/2000/svg" id="icons" enable-background="new 0 0 64 64" height="512px" viewBox="0 0 64 64" width="512px" class=""><g><g><g><g><path d="m53 19.502v7h-7z" fill="#656d78" data-original="#656D78" class="" style="fill:#656D78"/></g><g><path d="m60 26.502h-7v-7z" fill="#545c66" data-original="#545C66" class="" style="fill:#383F51" data-old_color="#545c66"/></g><g><path d="m53 16.502c5.52 0 10 4.48 10 10s-4.48 10-10 10c-.82 0-1.62-.1-2.38-.29-4.37-1.06-7.62-5.01-7.62-9.71s3.25-8.65 7.62-9.71c.76-.19 1.56-.29 2.38-.29zm0 17 7-7-7-7-7 7z" fill="#ed5565" data-original="#ED5565" class="" style="fill:#B74F6F" data-old_color="#ed5565"/></g><g><path d="m53 26.502h7l-7 7-7-7z" fill="#e6e9ed" data-original="#E6E9ED" class="active-path" style="fill:#E3E9ED" data-old_color="#e6e9ed"/></g><g><path d="m50.62 16.792c-4.37 1.06-7.62 5.01-7.62 9.71s3.25 8.65 7.62 9.71c-3.51 6.71-10.53 11.29-18.62 11.29s-15.11-4.58-18.62-11.28v-.01c4.37-1.06 7.62-5.01 7.62-9.71s-3.25-8.65-7.62-9.71c3.51-6.71 10.53-11.29 18.62-11.29s15.11 4.58 18.62 11.29z" fill="#656d78" data-original="#656D78" class="" style="fill:#656D78"/></g><g><path d="m15 26.502c0 2.21-1.79 4-4 4v-8c2.21 0 4 1.79 4 4z" fill="#ccd1d9" data-original="#CCD1D9" class=""/></g><g><path d="m11 22.502v8c-2.21 0-4-1.79-4-4s1.79-4 4-4z" fill="#e6e9ed" data-original="#E6E9ED" class="active-path" style="fill:#E3E9ED" data-old_color="#e6e9ed"/></g><g><path d="m11 30.502c2.21 0 4-1.79 4-4s-1.79-4-4-4-4 1.79-4 4 1.79 4 4 4zm0-14c.82 0 1.62.1 2.38.29 4.37 1.06 7.62 5.01 7.62 9.71s-3.25 8.65-7.62 9.71c-.76.19-1.56.29-2.38.29-5.52 0-10-4.48-10-10s4.48-10 10-10z" fill="#5d9cec" data-original="#5D9CEC" class="" style="fill:#498C8A" data-old_color="#5d9cec"/></g></g><g><path d="m15.95 22.543c-.256 0-.512-.098-.707-.293-2.34-2.338-6.146-2.338-8.485 0-.391.391-1.023.391-1.414 0s-.391-1.023 0-1.414c3.119-3.119 8.194-3.119 11.313 0 .391.391.391 1.023 0 1.414-.195.195-.451.293-.707.293z" fill="#4a89dc" data-original="#4A89DC" class="" style="fill:#383F51" data-old_color="#4a89dc"/></g><g><path d="m11 34.489c-2.049 0-4.097-.779-5.656-2.339-.391-.391-.391-1.023 0-1.414s1.023-.391 1.414 0c2.338 2.338 6.146 2.338 8.485 0 .391-.391 1.023-.391 1.414 0s.391 1.023 0 1.414c-1.559 1.56-3.608 2.339-5.657 2.339z" fill="#4a89dc" data-original="#4A89DC" class="" style="fill:#383F51" data-old_color="#4a89dc"/></g><g><g><path d="m28.998 31.504c-.472 0-.892-.335-.981-.815l-1.5-8.006c-.103-.543.256-1.065.798-1.167.552-.1 1.066.256 1.167.798l1.5 8.006c.103.543-.256 1.065-.798 1.167-.063.011-.125.017-.186.017z" fill="#e6e9ed" data-original="#E6E9ED" class="active-path" style="fill:#E3E9ED" data-old_color="#e6e9ed"/></g><g><path d="m29 31.504c-.061 0-.123-.006-.186-.018-.542-.102-.9-.624-.798-1.167l1.5-8.006c.102-.542.62-.897 1.167-.798.542.102.9.624.798 1.167l-1.5 8.006c-.089.481-.509.816-.981.816z" fill="#e6e9ed" data-original="#E6E9ED" class="active-path" style="fill:#E3E9ED" data-old_color="#e6e9ed"/></g><g><path d="m34.999 23.498h-2c-.553 0-1-.447-1-1s.447-1 1-1h2c.553 0 1 .447 1 1s-.447 1-1 1z" fill="#e6e9ed" data-original="#E6E9ED" class="active-path" style="fill:#E3E9ED" data-old_color="#e6e9ed"/></g><g><path d="m34.998 31.504c-.448 0-.855-.303-.969-.758l-2-8.006c-.135-.535.191-1.078.728-1.212.535-.138 1.078.191 1.212.728l2 8.006c.135.535-.191 1.078-.728 1.212-.081.02-.163.03-.243.03z" fill="#e6e9ed" data-original="#E6E9ED" class="active-path" style="fill:#E3E9ED" data-old_color="#e6e9ed"/></g><g><path d="m34.999 31.504h-2c-.553 0-1-.447-1-1s.447-1 1-1h2c.553 0 1 .447 1 1s-.447 1-1 1z" fill="#e6e9ed" data-original="#E6E9ED" class="active-path" style="fill:#E3E9ED" data-old_color="#e6e9ed"/></g></g><g><path d="m54 30.494h-2c-.553 0-1-.447-1-1s.447-1 1-1h2c.553 0 1 .447 1 1s-.447 1-1 1z" fill="#ccd1d9" data-original="#CCD1D9" class=""/></g><g><path d="m11 47.496c-.553 0-1-.447-1-1v-6.002c0-.553.447-1 1-1s1 .447 1 1v6.002c0 .553-.447 1-1 1z" fill="#656d78" data-original="#656D78" class="" style="fill:#656D78"/></g><g><path d="m53.999 41.492h-1.875c-.553 0-1-.447-1-1s.447-1 1-1h1.875c.553 0 1 .447 1 1s-.447 1-1 1z" fill="#656d78" data-original="#656D78" class="" style="fill:#656D78"/></g><g><path d="m53.999 47.49c-.553 0-1-.447-1-1v-5.998c0-.553.447-1 1-1s1 .447 1 1v5.998c0 .553-.447 1-1 1z" fill="#656d78" data-original="#656D78" class="" style="fill:#656D78"/></g><g><path d="m53.999 44.492h-2c-.553 0-1-.447-1-1s.447-1 1-1h2c.553 0 1 .447 1 1s-.447 1-1 1z" fill="#656d78" data-original="#656D78" class="" style="fill:#656D78"/></g><g><path d="m53.999 47.492h-2c-.553 0-1-.447-1-1s.447-1 1-1h2c.553 0 1 .447 1 1s-.447 1-1 1z" fill="#656d78" data-original="#656D78" class="" style="fill:#656D78"/></g><g><path d="m44 52.498h-24c-.553 0-1-.447-1-1s.447-1 1-1h24c.553 0 1 .447 1 1s-.447 1-1 1z" fill="#656d78" data-original="#656D78" class="" style="fill:#656D78"/></g><g><path d="m44 55.498h-24c-.553 0-1-.447-1-1s.447-1 1-1h24c.553 0 1 .447 1 1s-.447 1-1 1z" fill="#656d78" data-original="#656D78" class="" style="fill:#656D78"/></g><g><path d="m37 58.498h-10c-.553 0-1-.447-1-1s.447-1 1-1h10c.553 0 1 .447 1 1s-.447 1-1 1z" fill="#656d78" data-original="#656D78" class="" style="fill:#656D78"/></g></g></g> </svg>
